<svg aria-hidden="true" style="position: absolute; width: 0; height: 0; overflow: hidden;" version="1.1" xmlns="http://www.w3.org/2000/svg" xmlns:xlink="http://www.w3.org/1999/xlink">
<defs>
<symbol id="icon-close" viewBox="0 0 32 32">
<path stroke-linejoin="miter" stroke-linecap="butt" stroke-miterlimit="4" stroke-width="2.4615" d="M1.231 16c0-8.157 6.612-14.769 14.769-14.769v0c8.157 0 14.769 6.612 14.769 14.769v0c0 8.157-6.612 14.769-14.769 14.769v0c-8.157 0-14.769-6.612-14.769-14.769v0z"></path>
<path stroke-linejoin="round" stroke-linecap="round" stroke-miterlimit="4" stroke-width="2.4615" d="M6.154 6.154l19.692 19.692"></path>
<path stroke-linejoin="round" stroke-linecap="round" stroke-miterlimit="4" stroke-width="2.4615" d="M6.154 25.846l19.692-19.692"></path>
</symbol>
<symbol id="icon-facebook" viewBox="0 0 32 32">
<path d="M22.667 4.667c0-0.177-0.070-0.346-0.195-0.471s-0.295-0.195-0.471-0.195h-3.333c-1.678-0.084-3.322 0.501-4.571 1.625s-2.003 2.697-2.096 4.375v3.6h-3.333c-0.177 0-0.346 0.070-0.471 0.195s-0.195 0.295-0.195 0.471v3.467c0 0.177 0.070 0.346 0.195 0.471s0.295 0.195 0.471 0.195h3.333v8.933c0 0.177 0.070 0.346 0.195 0.471s0.295 0.195 0.471 0.195h4c0.177 0 0.346-0.070 0.471-0.195s0.195-0.295 0.195-0.471v-8.933h3.493c0.148 0.002 0.293-0.045 0.411-0.135s0.204-0.216 0.242-0.359l0.96-3.467c0.026-0.098 0.030-0.202 0.010-0.302s-0.062-0.194-0.124-0.275c-0.062-0.081-0.142-0.147-0.233-0.193s-0.192-0.070-0.294-0.070h-4.467v-3.6c0.033-0.33 0.188-0.636 0.435-0.858s0.567-0.344 0.899-0.342h3.333c0.177 0 0.346-0.070 0.471-0.195s0.195-0.295 0.195-0.471v-3.467z"></path>
</symbol>
<symbol id="icon-instagram" viewBox="0 0 32 32">
<path d="M16 0c-4.347 0-4.889 0.020-6.596 0.096-1.704 0.080-2.864 0.348-3.884 0.744-1.052 0.408-1.945 0.956-2.835 1.845s-1.439 1.781-1.845 2.835c-0.396 1.020-0.665 2.18-0.744 3.884-0.080 1.707-0.096 2.249-0.096 6.596s0.020 4.889 0.096 6.596c0.080 1.703 0.348 2.864 0.744 3.884 0.408 1.051 0.956 1.945 1.845 2.835 0.889 0.888 1.781 1.439 2.835 1.845 1.021 0.395 2.181 0.665 3.884 0.744 1.707 0.080 2.249 0.096 6.596 0.096s4.889-0.020 6.596-0.096c1.703-0.080 2.864-0.349 3.884-0.744 1.051-0.408 1.945-0.957 2.835-1.845 0.888-0.889 1.439-1.78 1.845-2.835 0.395-1.020 0.665-2.181 0.744-3.884 0.080-1.707 0.096-2.249 0.096-6.596s-0.020-4.889-0.096-6.596c-0.080-1.703-0.349-2.865-0.744-3.884-0.408-1.052-0.957-1.945-1.845-2.835-0.889-0.889-1.78-1.439-2.835-1.845-1.020-0.396-2.181-0.665-3.884-0.744-1.707-0.080-2.249-0.096-6.596-0.096zM16 2.88c4.271 0 4.78 0.021 6.467 0.095 1.56 0.073 2.407 0.332 2.969 0.553 0.749 0.289 1.28 0.636 1.843 1.195 0.559 0.56 0.905 1.092 1.195 1.841 0.219 0.563 0.48 1.409 0.551 2.969 0.076 1.688 0.093 2.195 0.093 6.467s-0.020 4.78-0.099 6.467c-0.081 1.56-0.341 2.407-0.561 2.969-0.299 0.749-0.639 1.28-1.199 1.843-0.559 0.559-1.099 0.905-1.84 1.195-0.56 0.219-1.42 0.48-2.98 0.551-1.699 0.076-2.199 0.093-6.479 0.093-4.281 0-4.781-0.020-6.479-0.099-1.561-0.081-2.421-0.341-2.981-0.561-0.759-0.299-1.28-0.639-1.839-1.199-0.561-0.559-0.92-1.099-1.2-1.84-0.22-0.56-0.479-1.42-0.56-2.98-0.060-1.68-0.081-2.199-0.081-6.459 0-4.261 0.021-4.781 0.081-6.481 0.081-1.56 0.34-2.419 0.56-2.979 0.28-0.76 0.639-1.28 1.2-1.841 0.559-0.559 1.080-0.919 1.839-1.197 0.56-0.221 1.401-0.481 2.961-0.561 1.7-0.060 2.2-0.080 6.479-0.080l0.060 0.040zM16 7.784c-4.54 0-8.216 3.68-8.216 8.216 0 4.54 3.68 8.216 8.216 8.216 4.54 0 8.216-3.68 8.216-8.216 0-4.54-3.68-8.216-8.216-8.216zM16 21.333c-2.947 0-5.333-2.387-5.333-5.333s2.387-5.333 5.333-5.333c2.947 0 5.333 2.387 5.333 5.333s-2.387 5.333-5.333 5.333zM26.461 7.46c0 1.060-0.861 1.92-1.92 1.92-1.060 0-1.92-0.861-1.92-1.92s0.861-1.919 1.92-1.919c1.057-0.001 1.92 0.86 1.92 1.919z"></path>
</symbol>
<symbol id="icon-phone" viewBox="0 0 32 32">
<path d="M23.2 29.334c-5.444-0.007-10.662-2.173-14.512-6.022s-6.015-9.068-6.022-14.511c0-1.627 0.646-3.187 1.796-4.337s2.71-1.796 4.337-1.796c0.344-0.003 0.688 0.029 1.027 0.093 0.327 0.048 0.649 0.129 0.96 0.24 0.219 0.077 0.414 0.209 0.566 0.385s0.256 0.387 0.3 0.615l1.827 8c0.049 0.217 0.043 0.443-0.017 0.657s-0.174 0.41-0.329 0.569c-0.173 0.187-0.187 0.2-1.827 1.053 1.313 2.881 3.618 5.195 6.493 6.52 0.867-1.653 0.88-1.667 1.067-1.84 0.159-0.156 0.355-0.269 0.569-0.329s0.44-0.066 0.657-0.017l8 1.827c0.22 0.051 0.424 0.158 0.592 0.309s0.295 0.343 0.368 0.558c0.112 0.316 0.197 0.642 0.253 0.973 0.054 0.335 0.080 0.674 0.080 1.013-0.025 1.62-0.689 3.164-1.848 4.296s-2.719 1.759-4.339 1.744z"></path>
</symbol>
<symbol id="icon-arrow-right" viewBox="0 0 24 32">
<path d="M13.841 10.786c0.144-0.001 0.286 0.033 0.416 0.099s0.244 0.161 0.335 0.28l4.649 6.135c0.142 0.183 0.219 0.412 0.219 0.649s-0.077 0.466-0.219 0.649l-4.813 6.135c-0.163 0.209-0.398 0.34-0.653 0.365s-0.508-0.059-0.705-0.232c-0.197-0.174-0.32-0.423-0.344-0.693s0.055-0.54 0.219-0.748l4.303-5.48-4.158-5.48c-0.118-0.15-0.192-0.333-0.215-0.527s0.007-0.391 0.086-0.567c0.079-0.176 0.204-0.325 0.36-0.428s0.337-0.157 0.521-0.155z"></path>
</symbol>
<symbol id="icon-arrow-left" viewBox="0 0 24 32">
<path d="M10.58 21.214c-0.144 0.001-0.286-0.033-0.416-0.099s-0.244-0.161-0.335-0.28l-4.649-6.135c-0.142-0.183-0.219-0.412-0.219-0.649s0.077-0.466 0.219-0.649l4.813-6.135c0.163-0.209 0.398-0.34 0.653-0.365s0.508 0.059 0.705 0.232c0.197 0.174 0.32 0.423 0.344 0.693s-0.055 0.54-0.219 0.748l-4.303 5.48 4.158 5.48c0.118 0.15 0.193 0.333 0.216 0.527s-0.007 0.391-0.086 0.567c-0.079 0.176-0.204 0.325-0.36 0.428s-0.337 0.157-0.521 0.155z"></path>
</symbol>
<symbol id="icon-checkmark" viewBox="0 0 32 32">
<path d="M13.147 24c-0.183-0.001-0.364-0.039-0.531-0.112s-0.318-0.18-0.442-0.315l-6.48-6.893c-0.242-0.258-0.372-0.602-0.361-0.956s0.163-0.689 0.421-0.931c0.258-0.242 0.602-0.372 0.956-0.361s0.689 0.163 0.931 0.421l5.493 5.853 11.213-12.267c0.114-0.142 0.255-0.259 0.416-0.344s0.337-0.136 0.518-0.151c0.181-0.014 0.363 0.008 0.535 0.067s0.33 0.152 0.465 0.274c0.135 0.122 0.243 0.27 0.318 0.436s0.116 0.344 0.12 0.526c0.004 0.182-0.030 0.362-0.099 0.53s-0.171 0.321-0.301 0.448l-12.187 13.333c-0.123 0.136-0.273 0.246-0.441 0.322s-0.349 0.116-0.533 0.118h-0.013z"></path>
</symbol>
<symbol id="icon-person" viewBox="0 0 32 32">
<path d="M16 15.467c1.055 0 2.086-0.313 2.963-0.899s1.561-1.419 1.964-2.394 0.509-2.047 0.304-3.081c-0.206-1.035-0.714-1.985-1.46-2.731s-1.696-1.254-2.731-1.46-2.107-0.1-3.082 0.303c-0.975 0.404-1.807 1.087-2.393 1.964s-0.899 1.908-0.899 2.963c0 1.414 0.562 2.771 1.562 3.771s2.357 1.562 3.771 1.562z"></path>
<path d="M24 28.8c0.354 0 0.693-0.14 0.943-0.39s0.39-0.589 0.39-0.943c0-2.475-0.983-4.849-2.734-6.6s-4.124-2.734-6.6-2.734-4.849 0.983-6.6 2.734c-1.75 1.75-2.734 4.124-2.734 6.6 0 0.354 0.14 0.693 0.391 0.943s0.589 0.39 0.943 0.39h16z"></path>
</symbol>
<symbol id="icon-heart" viewBox="0 0 37 32">
<path d="M32.327 3.625c-3.702-3.096-9.154-2.625-12.586 0.942l-1.279 1.346-1.346-1.346c-2.759-2.827-8.279-4.577-12.586-0.942-4.24 3.635-4.442 10.096-0.673 14l13.058 13.462c0.404 0.404 0.942 0.606 1.481 0.606 0.606 0 1.144-0.202 1.548-0.606l13.058-13.462c3.769-3.904 3.567-10.365-0.673-14zM31.452 16.144l-12.99 13.462-13.058-13.462c-2.558-2.692-3.096-7.74 0.538-10.837 3.702-3.163 8.010-0.875 9.625 0.74l2.894 2.962 2.827-2.962c1.548-1.615 5.923-3.904 9.625-0.74 3.635 3.096 3.096 8.144 0.538 10.837z"></path>
</symbol>
<symbol id="icon-down" viewBox="0 0 51 32">
<path d="M50.237 3.138l-0.788-0.788c-0.563-0.563-1.35-0.563-1.912 0l-21.938 21.938-22.050-21.938c-0.563-0.563-1.35-0.563-1.913 0l-0.787 0.788c-0.563 0.563-0.563 1.35 0 1.912l23.738 23.738c0.563 0.563 1.35 0.563 1.913 0l23.737-23.738c0.563-0.563 0.563-1.35 0-1.912z"></path>
</symbol>
<symbol id="icon-arrow-up" viewBox="0 0 32 32">
<path d="M16 1l-15 15h9v16h12v-16h9z"></path>
</symbol>
<symbol id="icon-dagger" viewBox="0 0 32 32">
<path d="M26.667 7.303l-1.97-1.97-7.808 7.808-7.808-7.808-1.97 1.97 7.808 7.808-7.808 7.808 1.97 1.97 7.808-7.808 7.808 7.808 1.97-1.97-7.808-7.808 7.808-7.808z"></path>
</symbol>
<symbol id="icon-contakt" viewBox="0 0 32 32">
<path d="M16 16c2.946 0 5.333-2.388 5.333-5.333s-2.388-5.333-5.333-5.333v0c-2.946 0-5.333 2.388-5.333 5.333s2.388 5.333 5.333 5.333v0zM16 18.667c-3.561 0-10.667 1.787-10.667 5.333v1.333c0 0.732 0.599 1.333 1.333 1.333h18.667c0.732 0 1.333-0.601 1.333-1.333v-1.333c0-3.547-7.108-5.333-10.667-5.333z"></path>
</symbol>
<symbol id="icon-phon" viewBox="0 0 32 32">
<path d="M24.882 19.774l-3.268-0.373c-0.090-0.011-0.194-0.018-0.3-0.018-0.707 0-1.347 0.287-1.81 0.75l-2.366 2.368c-3.669-1.894-6.585-4.81-8.427-8.372l-0.051-0.108 2.38-2.377c0.463-0.463 0.75-1.103 0.75-1.81 0-0.106-0.006-0.21-0.019-0.312l0.001 0.012-0.373-3.243c-0.155-1.287-1.24-2.276-2.557-2.276-0.001 0-0.002 0-0.003 0h-2.226c-1.454 0-2.663 1.209-2.574 2.663 0.683 10.987 9.47 19.76 20.444 20.443 1.452 0.089 2.663-1.12 2.663-2.574v-2.226c0-0.004 0-0.008 0-0.012 0-1.308-0.985-2.386-2.253-2.532l-0.012-0.001z"></path>
</symbol>
<symbol id="icon-email" viewBox="0 0 32 32">
<path d="M26.667 5.333h-21.333c-1.467 0-2.652 1.2-2.652 2.667l-0.014 16c0 1.467 1.2 2.667 2.667 2.667h21.333c1.467 0 2.667-1.2 2.667-2.667v-16c0-1.467-1.2-2.667-2.667-2.667zM26.133 11.001l-9.426 5.892c-0.201 0.126-0.446 0.2-0.708 0.2s-0.506-0.075-0.713-0.204l0.006 0.003-9.426-5.892c-0.336-0.201-0.557-0.562-0.557-0.975 0-0.625 0.507-1.132 1.132-1.132 0.233 0 0.449 0.070 0.629 0.19l-0.004-0.003 8.933 5.586 8.933-5.588c0.176-0.118 0.392-0.188 0.624-0.188 0.625 0 1.132 0.507 1.132 1.132 0 0.413-0.221 0.775-0.552 0.972l-0.005 0.003z"></path>
</symbol>
</defs>
</svg>
